<svg xmlns="http://www.w3.org/2000/svg" version="1.1" xmlns:xlink="http://www.w3.org/1999/xlink" xmlns:svgjs="http://svgjs.dev/svgjs" width="2000" height="1247" viewBox="0 0 2000 1247"><g transform="matrix(1,0,0,1,-1.2121212121212466,0.504858299595071)"><svg viewBox="0 0 396 247" data-background-color="#ffffff" preserveAspectRatio="xMidYMid meet" height="1247" width="2000" xmlns="http://www.w3.org/2000/svg" xmlns:xlink="http://www.w3.org/1999/xlink"><g id="tight-bounds" transform="matrix(1,0,0,1,0.2400000000000091,-0.09999999999999432)"><svg viewBox="0 0 395.52 247.2" height="247.2" width="395.52"><g><svg></svg></g><g><svg viewBox="0 0 395.52 247.2" height="247.2" width="395.52"><g transform="matrix(1,0,0,1,112.00438567639256,47.215199999999996)"><svg viewBox="0 0 171.51122864721486 152.7696" height="152.7696" width="171.51122864721486"><g><svg viewBox="0 0 171.51122864721486 152.7696" height="152.7696" width="171.51122864721486"><g><svg viewBox="0 0 171.51122864721486 152.7696" height="152.7696" width="171.51122864721486"><g><svg viewBox="0 0 171.51122864721486 152.7696" height="152.7696" width="171.51122864721486"><g id="textblocktransform"><svg viewBox="0 0 171.51122864721486 152.7696" height="152.7696" width="171.51122864721486" id="textblock"><g><svg viewBox="0 0 171.51122864721486 152.7696" height="152.7696" width="171.51122864721486"><g transform="matrix(1,0,0,1,0,0)"><svg width="171.51122864721486" viewBox="-1.51 -57.76 82.66000000000001 73.62999999999997" height="152.7696" data-palette-color="#f54a4a"><path d="M38.43-49.02L38.43-49.02Q37.74-48.05 36.99-47.19 36.23-46.34 35.11-45.85L35.11-45.85Q34.52-42.48 34.16-39.06 33.79-35.64 33.37-32.23 32.96-28.81 32.45-25.42 31.93-22.02 31.05-18.7L31.05-18.7 31.1-18.12Q31.2-17.14 30.86-16.26 30.52-15.38 30.57-14.36L30.57-14.36Q29.88-12.65 29.39-10.57 28.91-8.5 28.81-6.64L28.81-6.64Q28.32-5.81 28-4.83 27.69-3.86 27.37-2.86 27.05-1.86 26.66-0.95 26.27-0.05 25.63 0.68L25.63 0.68Q25.49 1.81 25.07 2.81 24.66 3.81 24.15 4.79 23.63 5.76 23.17 6.71 22.71 7.67 22.51 8.74L22.51 8.74Q21.68 10.01 20.85 11.21 20.02 12.4 19.34 13.72L19.34 13.72Q18.7 14.01 18.24 14.38 17.77 14.75 17.33 15.06 16.89 15.38 16.33 15.63 15.77 15.87 14.99 15.87L14.99 15.87Q14.79 15.87 14.62 15.84 14.45 15.82 14.26 15.82L14.26 15.82Q13.57 15.28 12.89 14.77 12.21 14.26 11.43 13.87L11.43 13.87Q11.43 13.57 11.35 13.38 11.28 13.18 11.23 12.99 11.18 12.79 11.18 12.6 11.18 12.4 11.28 12.11L11.28 12.11Q10.84 11.82 10.28 11.06 9.72 10.3 9.72 9.77L9.72 9.77Q9.72 9.28 10.06 9.28L10.06 9.28Q9.96 8.79 9.74 8.33 9.52 7.86 9.52 7.37L9.52 7.37Q9.52 7.03 9.72 6.64L9.72 6.64Q9.18 5.37 8.74 4.03 8.3 2.69 8.15 1.27L8.15 1.27Q7.67 0.63 7.4-0.22 7.13-1.07 6.98-2 6.84-2.93 6.74-3.83 6.64-4.74 6.49-5.52L6.49-5.52Q6.45-5.81 6.25-6.47 6.05-7.13 6.05-7.37L6.05-7.37Q6.05-7.67 6.18-7.81 6.3-7.96 6.4-8.2L6.4-8.2Q5.81-10.55 5.44-12.94 5.08-15.33 4.76-17.72 4.44-20.12 4.03-22.49 3.61-24.85 2.88-27.15L2.88-27.15 2.88-27.59Q2.88-29.15 1.66-30.08L1.66-30.08Q1.9-30.81 1.9-31.3L1.9-31.3Q1.9-31.93 1.73-32.52 1.56-33.11 1.37-33.69 1.17-34.28 1.1-34.86 1.03-35.45 1.17-36.04L1.17-36.04Q0.63-36.62 0.29-37.3-0.05-37.99-0.59-38.48L-0.59-38.48-0.63-38.77Q-0.63-39.01-0.51-39.21-0.39-39.4-0.39-39.65L-0.39-39.65Q-0.39-39.99-0.56-40.23-0.73-40.48-0.95-40.67-1.17-40.87-1.34-41.06-1.51-41.26-1.51-41.5L-1.51-41.5Q-1.51-42.09-1.12-42.43-0.73-42.77-0.24-43.04 0.24-43.31 0.71-43.6 1.17-43.9 1.32-44.43L1.32-44.43Q1.71-44.34 2.1-44.31 2.49-44.29 2.88-44.09L2.88-44.09Q2.93-44.14 2.93-44.24L2.93-44.24Q2.93-44.38 2.47-44.51 2-44.63 1.86-44.82L1.86-44.82Q2.25-44.92 2.44-44.92L2.44-44.92Q3.42-44.92 4.32-44.43 5.22-43.95 6.05-43.41L6.05-43.41Q6.15-42.97 6.1-42.5 6.05-42.04 6.4-41.65L6.4-41.65Q6.35-41.41 6.37-41.21 6.4-41.02 6.4-40.82L6.4-40.82Q6.4-40.58 6.32-40.41 6.25-40.23 6.05-40.23L6.05-40.23Q6.4-39.65 6.52-38.82 6.64-37.99 6.76-37.11 6.88-36.23 7.08-35.4 7.28-34.57 7.81-33.94L7.81-33.94Q7.71-33.64 7.69-33.35 7.67-33.06 7.67-32.71L7.67-32.71Q7.67-31.15 8.06-29.64 8.45-28.13 8.45-26.56L8.45-26.56Q8.45-25.63 8.15-24.85L8.15-24.85Q8.15-24.41 8.45-24.15 8.74-23.88 8.84-23.44L8.84-23.44Q8.59-22.85 8.59-22.31L8.59-22.31Q8.59-21.19 9.03-20.19 9.47-19.19 9.47-18.12L9.47-18.12Q9.47-17.77 9.38-17.48 9.28-17.19 9.18-16.94L9.18-16.94Q9.62-16.5 9.64-15.82 9.67-15.14 10.06-14.7L10.06-14.7Q10.01-14.45 9.99-14.21 9.96-13.96 9.72-13.82L9.72-13.82Q9.96-13.48 9.99-12.92 10.01-12.35 10.4-12.26L10.4-12.26Q10.3-12.01 10.25-11.82 10.21-11.62 10.21-11.38L10.21-11.38Q10.21-10.84 10.35-10.4L10.35-10.4 10.64-9.52Q10.79-9.08 10.86-8.59 10.94-8.11 10.74-7.52L10.74-7.52Q10.94-7.23 11.06-6.84 11.18-6.45 11.28-6.03 11.38-5.62 11.57-5.3 11.77-4.98 12.16-4.88L12.16-4.88Q12.21-4.59 11.94-4.59 11.67-4.59 11.67-4.35L11.67-4.35Q11.67-3.96 11.96-3.39 12.26-2.83 12.5-2.59L12.5-2.59Q12.45-2.39 12.45-2.2L12.45-2.2 12.45-1.76Q12.45-1.07 12.65-0.37 12.84 0.34 13.01 1.05 13.18 1.76 13.28 2.44 13.38 3.13 13.18 3.71L13.18 3.71Q13.57 4.39 13.87 5.18 14.16 5.96 14.79 6.49L14.79 6.49Q14.79 7.32 15.14 8.08 15.48 8.84 16.02 9.52L16.02 9.52Q16.5 9.52 16.75 9.2 16.99 8.89 17.14 8.5 17.29 8.11 17.48 7.76 17.68 7.42 18.12 7.37L18.12 7.37Q18.16 6.88 18.38 6.57 18.6 6.25 18.82 5.91 19.04 5.57 19.21 5.18 19.38 4.79 19.34 4.2L19.34 4.2 19.87 4.05Q20.12 2.73 20.63 1.68 21.14 0.63 21.78-0.49L21.78-0.49 21.78-0.73Q21.78-1.22 21.92-1.56 22.07-1.9 21.97-2.44L21.97-2.44Q22.31-2.54 22.46-2.83 22.61-3.13 22.71-3.44 22.8-3.76 22.92-4.08 23.05-4.39 23.34-4.54L23.34-4.54 23.34-4.93Q23.29-5.37 23.41-5.79 23.54-6.2 23.34-6.64L23.34-6.64Q23.73-6.79 23.93-7.13 24.12-7.47 24.24-7.86 24.37-8.25 24.39-8.69 24.41-9.13 24.41-9.47L24.41-9.47Q24.76-9.91 24.9-10.52 25.05-11.13 25.15-11.77 25.24-12.4 25.42-12.99 25.59-13.57 25.98-14.01L25.98-14.01Q25.88-14.26 25.88-14.45L25.88-14.45 25.88-14.89Q25.88-15.82 26.17-16.58 26.46-17.33 26.71-18.21L26.71-18.21Q27.34-20.41 27.61-22.73 27.88-25.05 28.42-27.29L28.42-27.29Q28.47-27.54 28.61-28.08 28.76-28.61 28.91-29.17 29.05-29.74 29.17-30.2 29.3-30.66 29.3-30.81L29.3-30.81Q29.3-31.2 29.13-31.35 28.96-31.49 28.96-31.84L28.96-31.84Q29.25-32.28 29.35-32.96 29.44-33.64 29.49-34.4 29.54-35.16 29.52-35.86 29.49-36.57 29.49-37.11L29.49-37.11Q29.49-37.65 29.74-38.48 29.98-39.31 30.08-39.94L30.08-39.94Q30.32-41.6 30.4-43.24 30.47-44.87 30.57-46.53L30.57-46.53Q30.91-46.73 31.05-47.05 31.2-47.36 31.2-47.71L31.2-47.71Q31.2-48.24 31.08-48.73 30.96-49.22 30.96-49.76L30.96-49.76Q30.96-50 31.01-50.27 31.05-50.54 31.25-50.73L31.25-50.73Q31.2-51.07 31.18-51.42 31.15-51.76 30.91-52L30.91-52Q31.15-52.64 31.15-53.27L31.15-53.27Q31.15-53.86 31.03-54.44 30.91-55.03 30.91-55.66L30.91-55.66Q30.91-56.88 31.93-57.42L31.93-57.42 32.62-57.42Q33.11-57.42 33.59-57.47 34.08-57.52 34.62-57.76L34.62-57.76Q35.25-57.08 35.94-56.27 36.62-55.47 37.11-54.54 37.6-53.61 37.84-52.64 38.09-51.66 37.89-50.59L37.89-50.59Q38.09-50.2 38.13-49.8 38.18-49.41 38.43-49.02ZM28.27-22.22L28.47-22.41Q28.27-22.46 28.2-22.58 28.13-22.71 27.88-22.75L27.88-22.75 27.88-22.22 28.27-22.22ZM81.15-45.17L81.15-45.17Q80.86-44.68 80.73-44.14 80.61-43.6 80.56-43.07L80.56-43.07 80.22-43.07Q79.83-43.07 79.54-43.19 79.25-43.31 78.85-43.41L78.85-43.41Q79.05-41.55 79.1-39.65 79.15-37.74 79.15-35.89L79.15-35.89Q79.15-33.54 79.1-31.23 79.05-28.91 79.05-26.56L79.05-26.56Q79.05-25.44 78.93-24.34 78.81-23.24 78.32-22.22L78.32-22.22Q78.42-21.39 78.46-20.63 78.51-19.87 78.51-19.04L78.51-19.04Q78.51-16.75 78.24-14.48 77.98-12.21 77.59-9.96L77.59-9.96Q77.44-9.08 77.32-8.18 77.19-7.28 76.95-6.45L76.95-6.45Q76.85-6.2 76.68-5.96 76.51-5.71 76.41-5.47L76.41-5.47Q75.83-4.2 75.12-2.95 74.41-1.71 73.44-0.68L73.44-0.68Q72.7-0.63 72.02-0.29 71.34 0.05 70.75 0.05L70.75 0.05Q70.21 0.05 69.87-0.49L69.87-0.49 69.38-0.29Q69.14-0.2 68.85-0.15L68.85-0.15Q67.19-0.83 65.7-1.81 64.21-2.78 63.23-4.35L63.23-4.35 63.03-4.35Q62.6-4.35 62.4-4.54L62.4-4.54Q62.16-4.79 61.89-5.15 61.62-5.52 61.42-5.81L61.42-5.81Q60.84-6.74 60.15-7.67 59.47-8.59 58.54-9.23L58.54-9.23Q58.15-10.69 57.37-11.74 56.59-12.79 55.76-14.01L55.76-14.01Q55.12-16.46 53.42-18.55L53.42-18.55Q53.66-18.8 53.66-18.9L53.66-18.9Q53.66-19.14 53.49-19.31 53.32-19.48 53.32-19.68L53.32-19.68Q53.32-19.87 53.42-19.97L53.42-19.97Q52.78-20.65 52.37-21.51 51.95-22.36 51.58-23.24 51.22-24.12 50.8-25 50.39-25.88 49.8-26.61L49.8-26.61Q49.27-26.27 49.14-25.78 49.02-25.29 49.02-24.76L49.02-24.76Q49.02-24.37 49.05-23.97 49.07-23.58 49.07-23.19L49.07-23.19Q49.07-22.22 48.85-21.29 48.63-20.36 48.53-19.38L48.53-19.38Q48.48-18.7 48.51-17.87 48.53-17.04 48.46-16.21 48.39-15.38 48.19-14.6 48-13.82 47.51-13.28L47.51-13.28Q47.21-10.5 46.77-7.71 46.34-4.93 45.94-2.15L45.94-2.15Q45.85-1.66 45.75-0.93 45.65-0.2 45.53 0.56 45.41 1.32 45.33 2.03 45.26 2.73 45.26 3.17L45.26 3.17Q45.26 3.66 45.51 4.13 45.75 4.59 45.75 5.03L45.75 5.03Q45.75 5.37 45.53 5.44 45.31 5.52 45.26 5.81L45.26 5.81Q45.6 6.88 45.6 8.25L45.6 8.25Q45.6 8.64 45.55 9.06 45.51 9.47 45.41 9.86L45.41 9.86Q45.31 10.11 45.07 10.33 44.82 10.55 44.82 10.74L44.82 10.74Q44.82 10.94 45.02 11.04L45.02 11.04Q44.72 11.33 44.28 11.43 43.85 11.52 43.65 11.96L43.65 11.96Q43.16 11.57 42.67 11.25 42.19 10.94 41.75 10.55L41.75 10.55 41.6 10.5Q41.26 10.5 41.04 10.72 40.82 10.94 40.48 10.94L40.48 10.94Q40.38 10.94 40.31 10.91 40.23 10.89 40.13 10.89L40.13 10.89 39.84 9.62Q39.69 8.98 39.45 8.45L39.45 8.45Q39.84 7.42 39.96 6.13 40.09 4.83 40.23 3.52 40.38 2.2 40.67 1 40.96-0.2 41.75-1.07L41.75-1.07Q41.75-1.46 41.48-1.61 41.21-1.76 41.21-2.25L41.21-2.25Q41.21-2.34 41.28-2.59 41.35-2.83 41.43-3.13 41.5-3.42 41.57-3.69 41.65-3.96 41.7-4.1L41.7-4.1Q42.09-6.01 42.31-8.01 42.53-10.01 43.5-11.72L43.5-11.72Q43.45-11.91 43.45-12.3L43.45-12.3Q43.45-13.13 43.63-13.92 43.8-14.7 43.8-15.53L43.8-15.53Q43.8-16.21 43.65-16.8L43.65-16.8Q43.8-17.33 44.06-17.85 44.33-18.36 44.33-18.9L44.33-18.9Q44.33-19.38 43.99-19.58L43.99-19.58Q44.24-19.78 44.31-20.02 44.38-20.26 44.41-20.51 44.43-20.75 44.5-20.97 44.58-21.19 44.87-21.34L44.87-21.34Q44.82-21.83 44.8-22.27 44.77-22.71 44.77-23.19L44.77-23.19Q44.77-25 44.97-26.78 45.16-28.56 45.16-30.42L45.16-30.42Q45.16-32.23 44.87-33.94L44.87-33.94 45.41-35.01Q44.92-35.4 44.77-36.28 44.63-37.16 44.58-38.18 44.53-39.21 44.41-40.21 44.28-41.21 43.85-41.85L43.85-41.85 43.85-42.29Q43.85-43.07 43.75-43.8 43.65-44.53 43.65-45.26L43.65-45.26 43.65-45.7Q43.89-45.8 44.02-46.04 44.14-46.29 44.19-46.53L44.19-46.53 44.38-46.53Q44.97-46.53 45.55-46.63 46.14-46.73 46.73-46.73L46.73-46.73 47.36-46.73Q47.95-46.29 48.39-45.7 48.83-45.12 49.46-44.63L49.46-44.63 49.46-43.75Q49.9-43.16 50.14-42.48 50.39-41.8 50.66-41.06 50.93-40.33 51.22-39.65 51.51-38.96 52.05-38.48L52.05-38.48Q51.95-37.99 51.95-37.7L51.95-37.7Q51.95-37.06 52.07-36.43 52.19-35.79 52.24-35.21L52.24-35.21Q52.44-34.96 52.59-34.59 52.73-34.23 53.07-34.13L53.07-34.13Q53.32-32.23 54.07-30.52 54.83-28.81 55.17-26.95L55.17-26.95Q55.56-26.56 55.76-26 55.95-25.44 56.17-24.9 56.39-24.37 56.66-23.9 56.93-23.44 57.47-23.24L57.47-23.24Q57.76-22.07 58.2-20.9 58.64-19.73 59.57-18.9L59.57-18.9Q59.57-17.92 59.89-17.21 60.2-16.5 60.62-15.89 61.03-15.28 61.37-14.7 61.72-14.11 61.81-13.43L61.81-13.43Q62.5-12.4 63.4-11.52 64.3-10.64 65.26-9.84 66.21-9.03 67.14-8.2 68.06-7.37 68.85-6.45L68.85-6.45Q69.38-6.4 69.75-6.23 70.11-6.05 70.6-5.96L70.6-5.96Q70.94-6.2 71.16-6.57 71.38-6.93 71.58-7.32 71.77-7.71 71.99-8.08 72.21-8.45 72.56-8.74L72.56-8.74Q72.56-8.84 72.53-8.91 72.51-8.98 72.51-9.08L72.51-9.08Q72.51-9.62 72.68-9.94 72.85-10.25 73.09-10.64L73.09-10.64 73.09-11.91Q73.48-12.65 73.63-13.48 73.78-14.31 73.78-15.14L73.78-15.14Q73.78-15.82 73.73-16.53 73.68-17.24 73.68-17.97L73.68-17.97Q73.68-18.41 73.73-18.87 73.78-19.34 73.92-19.73L73.92-19.73Q74.02-19.82 74.27-20.04 74.51-20.26 74.51-20.31L74.51-20.31Q74.51-20.56 74.36-20.8 74.22-21.04 74.22-21.29L74.22-21.29Q74.22-21.63 74.51-21.83L74.51-21.83 74.51-22.12Q74.51-22.36 74.44-22.58 74.36-22.8 74.12-22.9L74.12-22.9Q74.36-23.19 74.46-23.61 74.56-24.02 74.58-24.49 74.61-24.95 74.58-25.39 74.56-25.83 74.56-26.22L74.56-26.22Q74.56-26.66 74.61-27.15 74.66-27.64 75-27.98L75-27.98Q74.85-28.56 74.8-29.13 74.75-29.69 74.75-30.27L74.75-30.27Q74.75-31.3 74.85-32.32 74.95-33.35 74.95-34.42L74.95-34.42Q74.95-34.81 74.9-35.23 74.85-35.64 74.85-36.04L74.85-36.04Q74.85-36.43 75.02-36.4 75.19-36.38 75.19-36.62L75.19-36.62Q75.19-36.96 75.12-37.3 75.05-37.65 75-37.99L75-37.99Q74.9-38.82 74.85-39.67 74.8-40.53 74.8-41.41L74.8-41.41Q74.8-41.94 74.83-42.5 74.85-43.07 75-43.6L75-43.6Q74.7-44.04 74.63-44.46 74.56-44.87 74.51-45.21L74.51-45.21 74.41-45.95Q74.36-46.34 74.12-46.73L74.12-46.73Q74.07-46.78 74.07-47.02L74.07-47.02Q74.07-47.41 74.27-47.61L74.27-47.61Q74.02-48.44 73.61-49.22 73.19-50 73.09-50.93L73.09-50.93Q72.56-51.22 72.29-51.88 72.02-52.54 72.02-53.08L72.02-53.08Q72.02-53.71 72.36-54.32 72.7-54.93 73.44-54.93L73.44-54.93Q73.73-54.93 74-54.76 74.27-54.59 74.53-54.37 74.8-54.15 75.07-53.98 75.34-53.81 75.63-53.81L75.63-53.81Q75.83-53.81 76.22-53.91L76.22-53.91Q76.76-53.17 77.32-52.56 77.88-51.95 78.46-51.32L78.46-51.32Q78.46-50.49 78.76-49.8 79.05-49.12 79.39-48.51 79.73-47.9 80-47.31 80.27-46.73 80.22-46.04L80.22-46.04Q80.32-45.7 80.61-45.56 80.91-45.41 81.15-45.17Z" opacity="1" transform="matrix(1,0,0,1,0,0)" fill="#f54a4a" class="wordmark-text-0" data-fill-palette-color="primary" id="text-0"></path></svg></g></svg></g></svg></g></svg></g></svg></g></svg></g></svg></g><path d="M101.214 41.215L101.214 0 348.414 0 348.414 247.2 101.214 247.2 101.214 205.985 114.991 205.985 114.991 233.423 334.637 233.423 334.637 13.777 114.991 13.777 114.991 41.215Z" fill="#f54a4a" stroke="transparent" data-fill-palette-color="primary"></path></svg></g><defs></defs></svg><rect width="395.52" height="247.2" fill="none" stroke="none" visibility="hidden"></rect></g></svg></g></svg>